<mxfile host="app.diagrams.net" modified="2022-09-21T10:00:24.314Z" agent="5.0 (Windows NT 10.0; Win64; x64) AppleWebKit/537.36 (KHTML, like Gecko) Chrome/105.0.0.0 Safari/537.36" etag="sBaiWbFiquhi-0erRNA9" version="20.3.3" type="github">
  <diagram id="C5RBs43oDa-KdzZeNtuy" name="Page-1">
    <mxGraphModel dx="2249" dy="772" grid="1" gridSize="10" guides="1" tooltips="1" connect="1" arrows="1" fold="1" page="1" pageScale="1" pageWidth="827" pageHeight="1169" math="0" shadow="0">
      <root>
        <mxCell id="WIyWlLk6GJQsqaUBKTNV-0" />
        <mxCell id="WIyWlLk6GJQsqaUBKTNV-1" parent="WIyWlLk6GJQsqaUBKTNV-0" />
        <mxCell id="XqBhYf-CSLFlhf42oes1-18" value="" style="rounded=0;whiteSpace=wrap;html=1;labelBackgroundColor=none;fontColor=default;" vertex="1" parent="WIyWlLk6GJQsqaUBKTNV-1">
          <mxGeometry x="-60" y="20" width="860" height="230" as="geometry" />
        </mxCell>
        <mxCell id="XqBhYf-CSLFlhf42oes1-6" style="edgeStyle=orthogonalEdgeStyle;rounded=0;orthogonalLoop=1;jettySize=auto;html=1;exitX=1;exitY=0.5;exitDx=0;exitDy=0;" edge="1" parent="WIyWlLk6GJQsqaUBKTNV-1" source="XqBhYf-CSLFlhf42oes1-2" target="XqBhYf-CSLFlhf42oes1-5">
          <mxGeometry relative="1" as="geometry" />
        </mxCell>
        <mxCell id="XqBhYf-CSLFlhf42oes1-8" value="成功" style="edgeLabel;html=1;align=center;verticalAlign=middle;resizable=0;points=[];fontColor=default;" vertex="1" connectable="0" parent="XqBhYf-CSLFlhf42oes1-6">
          <mxGeometry x="-0.2667" y="-1" relative="1" as="geometry">
            <mxPoint as="offset" />
          </mxGeometry>
        </mxCell>
        <mxCell id="XqBhYf-CSLFlhf42oes1-2" value="&lt;h4&gt;数字精灵登录&lt;/h4&gt;" style="rhombus;whiteSpace=wrap;html=1;" vertex="1" parent="WIyWlLk6GJQsqaUBKTNV-1">
          <mxGeometry x="80" y="100" width="110" height="110" as="geometry" />
        </mxCell>
        <mxCell id="XqBhYf-CSLFlhf42oes1-14" style="edgeStyle=orthogonalEdgeStyle;rounded=0;orthogonalLoop=1;jettySize=auto;html=1;" edge="1" parent="WIyWlLk6GJQsqaUBKTNV-1" source="XqBhYf-CSLFlhf42oes1-5" target="XqBhYf-CSLFlhf42oes1-13">
          <mxGeometry relative="1" as="geometry" />
        </mxCell>
        <mxCell id="XqBhYf-CSLFlhf42oes1-16" value="返回Token" style="edgeLabel;html=1;align=center;verticalAlign=middle;resizable=0;points=[];labelBackgroundColor=#66FF66;" vertex="1" connectable="0" parent="XqBhYf-CSLFlhf42oes1-14">
          <mxGeometry x="-0.2718" y="-2" relative="1" as="geometry">
            <mxPoint x="7" y="-2" as="offset" />
          </mxGeometry>
        </mxCell>
        <mxCell id="XqBhYf-CSLFlhf42oes1-5" value="3D视图SSO登录" style="rounded=0;whiteSpace=wrap;html=1;" vertex="1" parent="WIyWlLk6GJQsqaUBKTNV-1">
          <mxGeometry x="294" y="125" width="120" height="60" as="geometry" />
        </mxCell>
        <mxCell id="XqBhYf-CSLFlhf42oes1-11" value="&lt;span style=&quot;&quot;&gt;用户名，&lt;/span&gt;&lt;br style=&quot;&quot;&gt;&lt;span style=&quot;&quot;&gt;密码，&lt;/span&gt;&lt;br style=&quot;&quot;&gt;&lt;div style=&quot;&quot;&gt;&lt;span style=&quot;background-color: initial;&quot;&gt;相关权限？&lt;/span&gt;&lt;/div&gt;" style="shape=callout;whiteSpace=wrap;html=1;perimeter=calloutPerimeter;align=right;fillColor=#ffe6cc;strokeColor=#d79b00;" vertex="1" parent="WIyWlLk6GJQsqaUBKTNV-1">
          <mxGeometry x="290" y="45" width="120" height="80" as="geometry" />
        </mxCell>
        <mxCell id="XqBhYf-CSLFlhf42oes1-13" value="localstorage存储视图Token" style="rounded=0;whiteSpace=wrap;html=1;" vertex="1" parent="WIyWlLk6GJQsqaUBKTNV-1">
          <mxGeometry x="520" y="125" width="120" height="60" as="geometry" />
        </mxCell>
        <mxCell id="XqBhYf-CSLFlhf42oes1-17" value="1、Token过期时间&lt;br&gt;2、无感刷新Token" style="shape=callout;whiteSpace=wrap;html=1;perimeter=calloutPerimeter;labelBackgroundColor=none;fillColor=#ffe6cc;strokeColor=#d79b00;" vertex="1" parent="WIyWlLk6GJQsqaUBKTNV-1">
          <mxGeometry x="520" y="45" width="120" height="80" as="geometry" />
        </mxCell>
        <mxCell id="XqBhYf-CSLFlhf42oes1-19" value="" style="rounded=0;whiteSpace=wrap;html=1;labelBackgroundColor=none;fontColor=default;" vertex="1" parent="WIyWlLk6GJQsqaUBKTNV-1">
          <mxGeometry x="-60" y="320" width="860" height="220" as="geometry" />
        </mxCell>
        <mxCell id="XqBhYf-CSLFlhf42oes1-20" value="&lt;h1&gt;SSO登录流程&lt;/h1&gt;" style="text;html=1;strokeColor=none;fillColor=none;align=center;verticalAlign=middle;whiteSpace=wrap;rounded=0;labelBackgroundColor=none;fontColor=default;" vertex="1" parent="WIyWlLk6GJQsqaUBKTNV-1">
          <mxGeometry x="-50" y="30" width="160" height="30" as="geometry" />
        </mxCell>
        <mxCell id="XqBhYf-CSLFlhf42oes1-21" value="&lt;h1&gt;点击3D视图流程&lt;/h1&gt;" style="text;html=1;strokeColor=none;fillColor=none;align=center;verticalAlign=middle;whiteSpace=wrap;rounded=0;labelBackgroundColor=none;fontColor=default;" vertex="1" parent="WIyWlLk6GJQsqaUBKTNV-1">
          <mxGeometry x="-50" y="340" width="190" height="30" as="geometry" />
        </mxCell>
        <mxCell id="XqBhYf-CSLFlhf42oes1-25" style="edgeStyle=orthogonalEdgeStyle;rounded=0;orthogonalLoop=1;jettySize=auto;html=1;fontColor=default;" edge="1" parent="WIyWlLk6GJQsqaUBKTNV-1" source="XqBhYf-CSLFlhf42oes1-23" target="XqBhYf-CSLFlhf42oes1-24">
          <mxGeometry relative="1" as="geometry" />
        </mxCell>
        <mxCell id="XqBhYf-CSLFlhf42oes1-26" value="获取视图Token" style="edgeLabel;html=1;align=center;verticalAlign=middle;resizable=0;points=[];fontColor=default;" vertex="1" connectable="0" parent="XqBhYf-CSLFlhf42oes1-25">
          <mxGeometry x="-0.2619" y="-1" relative="1" as="geometry">
            <mxPoint x="15" y="-1" as="offset" />
          </mxGeometry>
        </mxCell>
        <mxCell id="XqBhYf-CSLFlhf42oes1-23" value="&lt;h4&gt;用户点击“3D视图”&lt;/h4&gt;" style="rounded=0;whiteSpace=wrap;html=1;labelBackgroundColor=none;fontColor=default;" vertex="1" parent="WIyWlLk6GJQsqaUBKTNV-1">
          <mxGeometry x="185" y="410" width="120" height="60" as="geometry" />
        </mxCell>
        <mxCell id="XqBhYf-CSLFlhf42oes1-24" value="携带Token请求视图URL" style="rounded=0;whiteSpace=wrap;html=1;labelBackgroundColor=none;fontColor=default;" vertex="1" parent="WIyWlLk6GJQsqaUBKTNV-1">
          <mxGeometry x="425" y="410" width="120" height="60" as="geometry" />
        </mxCell>
      </root>
    </mxGraphModel>
  </diagram>
</mxfile>
